<svg id="visual" viewBox="0 0 900 600" width="900" height="600" xmlns="http://www.w3.org/2000/svg" xmlns:xlink="http://www.w3.org/1999/xlink" version="1.1"><g stroke-width="1" stroke-linejoin="bevel"><path d="M410 290L519 314L506 236Z" fill="#464646" stroke="#464646"></path><path d="M410 290L499 395L519 314Z" fill="#1e1e1e" stroke="#1e1e1e"></path><path d="M565 374L590 310L519 314Z" fill="#252525" stroke="#252525"></path><path d="M519 314L590 310L506 236Z" fill="#161616" stroke="#161616"></path><path d="M506 236L401 171L410 290Z" fill="#4f4f4f" stroke="#4f4f4f"></path><path d="M499 395L565 374L519 314Z" fill="#000000" stroke="#000000"></path><path d="M270 362L409 430L410 290Z" fill="#2d2d2d" stroke="#2d2d2d"></path><path d="M410 290L409 430L499 395Z" fill="#4f4f4f" stroke="#4f4f4f"></path><path d="M499 395L637 499L565 374Z" fill="#353535" stroke="#353535"></path><path d="M590 310L595 170L506 236Z" fill="#464646" stroke="#464646"></path><path d="M471 79L408 116L401 171Z" fill="#3e3e3e" stroke="#3e3e3e"></path><path d="M471 79L401 171L506 236Z" fill="#4f4f4f" stroke="#4f4f4f"></path><path d="M408 116L307 187L401 171Z" fill="#252525" stroke="#252525"></path><path d="M401 171L307 187L410 290Z" fill="#464646" stroke="#464646"></path><path d="M307 187L280 290L410 290Z" fill="#2d2d2d" stroke="#2d2d2d"></path><path d="M595 170L471 79L506 236Z" fill="#161616" stroke="#161616"></path><path d="M409 430L465 487L499 395Z" fill="#585858" stroke="#585858"></path><path d="M270 362L361 460L409 430Z" fill="#1e1e1e" stroke="#1e1e1e"></path><path d="M409 430L361 460L465 487Z" fill="#161616" stroke="#161616"></path><path d="M688 437L677 290L590 310Z" fill="#4f4f4f" stroke="#4f4f4f"></path><path d="M590 310L671 222L595 170Z" fill="#1e1e1e" stroke="#1e1e1e"></path><path d="M688 437L590 310L565 374Z" fill="#353535" stroke="#353535"></path><path d="M677 290L671 222L590 310Z" fill="#1e1e1e" stroke="#1e1e1e"></path><path d="M595 170L586 86L471 79Z" fill="#585858" stroke="#585858"></path><path d="M280 290L270 362L410 290Z" fill="#161616" stroke="#161616"></path><path d="M722 77L586 86L595 170Z" fill="#000000" stroke="#000000"></path><path d="M321 0L284 95L408 116Z" fill="#585858" stroke="#585858"></path><path d="M408 116L284 95L307 187Z" fill="#353535" stroke="#353535"></path><path d="M307 187L209 212L280 290Z" fill="#585858" stroke="#585858"></path><path d="M280 290L190 264L270 362Z" fill="#252525" stroke="#252525"></path><path d="M637 499L688 437L565 374Z" fill="#353535" stroke="#353535"></path><path d="M239 135L209 212L307 187Z" fill="#161616" stroke="#161616"></path><path d="M284 95L239 135L307 187Z" fill="#252525" stroke="#252525"></path><path d="M270 362L322 513L361 460Z" fill="#2d2d2d" stroke="#2d2d2d"></path><path d="M361 460L408 600L465 487Z" fill="#4f4f4f" stroke="#4f4f4f"></path><path d="M196 423L322 513L270 362Z" fill="#3e3e3e" stroke="#3e3e3e"></path><path d="M465 487L637 499L499 395Z" fill="#161616" stroke="#161616"></path><path d="M539 600L637 499L465 487Z" fill="#252525" stroke="#252525"></path><path d="M209 212L190 264L280 290Z" fill="#585858" stroke="#585858"></path><path d="M586 86L492 0L471 79Z" fill="#000000" stroke="#000000"></path><path d="M471 79L409 0L408 116Z" fill="#0d0d0d" stroke="#0d0d0d"></path><path d="M492 0L409 0L471 79Z" fill="#2d2d2d" stroke="#2d2d2d"></path><path d="M190 264L196 423L270 362Z" fill="#000000" stroke="#000000"></path><path d="M823 265L772 228L677 290Z" fill="#1e1e1e" stroke="#1e1e1e"></path><path d="M677 290L772 228L671 222Z" fill="#0d0d0d" stroke="#0d0d0d"></path><path d="M671 222L722 77L595 170Z" fill="#252525" stroke="#252525"></path><path d="M586 86L603 0L492 0Z" fill="#161616" stroke="#161616"></path><path d="M683 0L603 0L586 86Z" fill="#3e3e3e" stroke="#3e3e3e"></path><path d="M409 0L321 0L408 116Z" fill="#4f4f4f" stroke="#4f4f4f"></path><path d="M284 95L233 0L239 135Z" fill="#000000" stroke="#000000"></path><path d="M637 499L696 508L688 437Z" fill="#1e1e1e" stroke="#1e1e1e"></path><path d="M838 417L823 265L677 290Z" fill="#161616" stroke="#161616"></path><path d="M623 600L696 508L637 499Z" fill="#464646" stroke="#464646"></path><path d="M280 600L408 600L322 513Z" fill="#2d2d2d" stroke="#2d2d2d"></path><path d="M322 513L408 600L361 460Z" fill="#0d0d0d" stroke="#0d0d0d"></path><path d="M408 600L539 600L465 487Z" fill="#161616" stroke="#161616"></path><path d="M760 102L722 77L671 222Z" fill="#000000" stroke="#000000"></path><path d="M196 423L198 473L322 513Z" fill="#2d2d2d" stroke="#2d2d2d"></path><path d="M772 228L760 102L671 222Z" fill="#0d0d0d" stroke="#0d0d0d"></path><path d="M539 600L623 600L637 499Z" fill="#4f4f4f" stroke="#4f4f4f"></path><path d="M790 0L683 0L722 77Z" fill="#464646" stroke="#464646"></path><path d="M722 77L683 0L586 86Z" fill="#464646" stroke="#464646"></path><path d="M838 417L677 290L688 437Z" fill="#1e1e1e" stroke="#1e1e1e"></path><path d="M772 228L900 200L760 102Z" fill="#353535" stroke="#353535"></path><path d="M190 264L103 297L196 423Z" fill="#4f4f4f" stroke="#4f4f4f"></path><path d="M196 423L67 430L198 473Z" fill="#161616" stroke="#161616"></path><path d="M113 160L103 297L190 264Z" fill="#2d2d2d" stroke="#2d2d2d"></path><path d="M113 160L190 264L209 212Z" fill="#2d2d2d" stroke="#2d2d2d"></path><path d="M113 160L209 212L239 135Z" fill="#161616" stroke="#161616"></path><path d="M321 0L233 0L284 95Z" fill="#161616" stroke="#161616"></path><path d="M198 473L280 600L322 513Z" fill="#3e3e3e" stroke="#3e3e3e"></path><path d="M91 98L113 160L239 135Z" fill="#3e3e3e" stroke="#3e3e3e"></path><path d="M790 512L688 437L696 508Z" fill="#464646" stroke="#464646"></path><path d="M790 512L838 417L688 437Z" fill="#0d0d0d" stroke="#0d0d0d"></path><path d="M738 600L790 512L696 508Z" fill="#1e1e1e" stroke="#1e1e1e"></path><path d="M198 473L206 600L280 600Z" fill="#585858" stroke="#585858"></path><path d="M70 600L206 600L198 473Z" fill="#585858" stroke="#585858"></path><path d="M623 600L738 600L696 508Z" fill="#464646" stroke="#464646"></path><path d="M233 0L91 98L239 135Z" fill="#000000" stroke="#000000"></path><path d="M0 239L0 264L103 297Z" fill="#2d2d2d" stroke="#2d2d2d"></path><path d="M900 81L790 0L760 102Z" fill="#2d2d2d" stroke="#2d2d2d"></path><path d="M760 102L790 0L722 77Z" fill="#585858" stroke="#585858"></path><path d="M0 431L67 430L103 297Z" fill="#000000" stroke="#000000"></path><path d="M103 297L67 430L196 423Z" fill="#252525" stroke="#252525"></path><path d="M838 417L900 317L823 265Z" fill="#1e1e1e" stroke="#1e1e1e"></path><path d="M823 265L900 200L772 228Z" fill="#161616" stroke="#161616"></path><path d="M900 404L900 317L838 417Z" fill="#353535" stroke="#353535"></path><path d="M900 317L900 200L823 265Z" fill="#3e3e3e" stroke="#3e3e3e"></path><path d="M0 431L63 466L67 430Z" fill="#000000" stroke="#000000"></path><path d="M67 430L63 466L198 473Z" fill="#4f4f4f" stroke="#4f4f4f"></path><path d="M900 489L900 404L838 417Z" fill="#1e1e1e" stroke="#1e1e1e"></path><path d="M900 489L838 417L790 512Z" fill="#4f4f4f" stroke="#4f4f4f"></path><path d="M738 600L788 600L790 512Z" fill="#353535" stroke="#353535"></path><path d="M0 239L103 297L113 160Z" fill="#161616" stroke="#161616"></path><path d="M0 109L0 239L113 160Z" fill="#0d0d0d" stroke="#0d0d0d"></path><path d="M900 200L900 81L760 102Z" fill="#585858" stroke="#585858"></path><path d="M900 600L900 489L790 512Z" fill="#000000" stroke="#000000"></path><path d="M233 0L80 0L91 98Z" fill="#464646" stroke="#464646"></path><path d="M91 98L0 109L113 160Z" fill="#3e3e3e" stroke="#3e3e3e"></path><path d="M0 264L0 431L103 297Z" fill="#585858" stroke="#585858"></path><path d="M63 466L70 600L198 473Z" fill="#161616" stroke="#161616"></path><path d="M0 0L0 109L91 98Z" fill="#464646" stroke="#464646"></path><path d="M0 431L0 471L63 466Z" fill="#3e3e3e" stroke="#3e3e3e"></path><path d="M0 471L70 600L63 466Z" fill="#464646" stroke="#464646"></path><path d="M900 81L900 0L790 0Z" fill="#1e1e1e" stroke="#1e1e1e"></path><path d="M788 600L900 600L790 512Z" fill="#252525" stroke="#252525"></path><path d="M80 0L0 0L91 98Z" fill="#1e1e1e" stroke="#1e1e1e"></path><path d="M0 471L0 600L70 600Z" fill="#161616" stroke="#161616"></path></g></svg>